<?xml version="1.0" encoding="UTF-8"?>
<svg id="Layer_1" xmlns="http://www.w3.org/2000/svg" width="1024" height="1024" version="1.1" viewBox="0 0 1024 1024">
  <!-- Generator: Adobe Illustrator 29.2.1, SVG Export Plug-In . SVG Version: 2.1.0 Build 116)  -->
  <g>
    <path d="M101.38,3.01h336.55c8.69,0,15.74,7.05,15.74,15.74v315.72c0,8.69-7.05,15.74-15.74,15.74H15.74C7.05,350.21,0,343.15,0,334.47V104.39C0,48.44,45.43,3.01,101.38,3.01Z" style="fill: #fc5341;"/>
    <path d="M65.34,500.89h434.3c11.29,0,20.46,9.17,20.46,20.46v412.76c0,11.29-9.17,20.46-20.46,20.46H-45.97c-11.29,0-20.46-9.17-20.46-20.46v-301.44c0-72.73,59.04-131.77,131.77-131.77Z" transform="translate(-500.89 954.56) rotate(-90)" style="fill: #93d2bd;"/>
    <path d="M646.17,673.79h361.6c8.96,0,16.23,7.27,16.23,16.23v314.74c0,8.96-7.27,16.23-16.23,16.23h-449.91c-8.96,0-16.23-7.27-16.23-16.23v-226.43c0-57.7,46.84-104.54,104.54-104.54Z" transform="translate(1565.63 1694.78) rotate(180)" style="fill: #015f74;"/>
    <path d="M619.05,58.56h435.58c11.71,0,21.22,9.51,21.22,21.22v439.93c0,11.71-9.51,21.22-21.22,21.22H503.59c-11.71,0-21.22-9.51-21.22-21.22V195.24c0-75.43,61.24-136.68,136.68-136.68Z" transform="translate(1078.86 -479.36) rotate(90)" style="fill: #febd40;"/>
  </g>
  <g>
    <path d="M486.83,882.8c-22.6,0-38.73-12.08-45.38-34-5.43-17.84-11.78-35.67-17.58-51.4-14.79-6.9-29.71-13.5-44.75-19.82-17.08,7.7-34,15.77-50.73,24.2-6.84,3.42-13.46,5.08-20.23,5.08-11.5,0-21.84-4.7-30.76-13.96-14.98-15.54-30.24-30.81-45.76-45.8-14.24-13.8-17.38-31.96-8.61-49.83,3.53-7.18,6.87-14.4,10.41-22.04,4.29-9.25,8.69-18.77,13.48-28.26-7.55-14.93-14.31-30.26-20.24-45.91-7.78-2.6-15.45-5.24-22.92-7.81-10.54-3.64-21.43-7.4-32.03-10.78-19.74-6.29-30.87-21.69-30.51-42.22.4-22.76.4-43.53-.02-63.53-.43-20.94,10.85-36.67,30.94-43.18,18.51-5.96,36.9-12.28,55.17-18.95,7.1-14.65,13.9-29.45,20.38-44.38-7.71-17.05-15.76-33.94-24.16-50.67-9.11-18.31-5.89-36.91,8.84-51.06,15.25-14.55,30.14-29.46,44.67-44.73,11.03-11.66,22.95-14.1,30.99-14.1,9.2,0,16.51,3.11,21.2,5.44,15.21,7.57,32.92,16.28,50.96,24.49,15.38-5.81,30.18-11.77,44.13-17.75,7.27-18.49,13.71-36.81,18.63-51.07,6.48-18.8,21.54-29.58,41.31-29.58h.99c10.67.18,21.33.27,32,.27,10.55,0,21.61-.08,32.89-.24h.78c19.32,0,34.07,10.69,40.46,29.33,3.45,9.93,6.98,19.83,10.61,29.7,2.55,7.01,5.16,14.2,7.72,21.44,9.05,3.2,17.74,6.65,26.22,9.99,6.44,2.55,12.59,4.99,18.71,7.25,17-7.65,33.82-15.67,50.46-24.08,7.31-3.66,14.22-5.44,21.17-5.44,8.06,0,19.99,2.46,31.08,14.18,6.92,7.33,14.26,14.74,21.36,21.91,8.12,8.2,16.51,16.69,24.69,25.41,10.88,11.64,14.15,31.49,7.61,46.18-4.66,10.34-9.44,20.61-14.35,30.83-3.83,8.06-7.51,15.77-11.03,23.51,2.35,6.25,4.87,12.5,7.48,19.04,3.24,8.1,6.57,16.45,9.7,24.99,8.05,2.79,15.93,5.73,23.59,8.59,8.83,3.29,17.16,6.4,25.59,9.25,20.01,6.76,31.22,22.86,30.76,44.19-.54,24.43-.52,43.16.06,60.72.42,12.59-3.14,35.16-31.56,44.92-17.82,6.15-33.76,12-48.47,17.82-5.82,14.63-11.36,29.38-16.6,44.24,3.42,7.43,7.01,14.96,10.49,22.28,4.97,10.3,9.8,20.66,14.5,31.09,5.94,13.26,5.54,33.53-6.76,46.56-6.26,6.64-13.01,13.65-20.66,21.43-2.6,2.66-5.24,5.31-7.86,7.96-6.91,6.92-13.72,13.93-20.45,21.03-7.26,7.88-17.48,12.38-28.2,12.4-10.85,0-18.9-4.5-23.23-6.92-.38-.21-.76-.43-1.14-.62-2.94-1.43-5.97-2.81-9.01-4.21-1.85-.85-3.72-1.68-5.57-2.56-10.94-5.08-21.83-10.25-32.68-15.52-14.94,7.02-30.1,13.56-45.45,19.64-2.15,6.34-4.34,12.62-6.48,18.74-4.11,11.47-8,23.02-11.68,34.64-6.2,20.06-21.8,31.56-42.78,31.56l-1.4-.02c-8.66-.18-20.08-.37-31.36-.37-9.87,0-18.71.14-27.05.45-.9.02-1.75.04-2.57.04h0Z" style="fill: #d1d1d1;"/>
    <path d="M728.12,775.83c-3.67.52-7.52-2.44-11.16-4.21-5.01-2.45-10.11-4.68-15.17-7.03-8.31-3.86-16.61-7.74-24.86-11.72-4.54-2.2-9.07-4.4-13.58-6.67-6.3-3.16-10.59-2.2-16.55.65-17.36,8.3-35.04,15.94-52.98,22.89-6.3,2.43-9.93,5.52-12.01,11.81-6.66,20.09-14.17,39.9-20.42,60.12-2.27,7.35-5.87,9.13-12.92,8.98-20.06-.4-40.15-.62-60.2.08-9.07.33-13.42-2.3-16.14-11.26-6.15-20.23-13.32-40.17-20.71-59.99-1.32-3.54-5.2-7.01-8.76-8.67-18.42-8.68-37.05-16.93-55.87-24.73-4.21-1.73-10.3-2.32-14.28-.59-19.71,8.72-39.19,17.94-58.43,27.65-5.75,2.88-9.18,2.14-13.59-2.44-15.25-15.81-30.77-31.35-46.57-46.61-4.27-4.14-4.7-7.43-2.13-12.68,8.84-17.98,16.68-36.47,25.89-54.24,4.21-8.11,3.15-14.12-.8-21.92-8.19-16.13-15.66-32.72-21.79-49.72-2.7-7.46-6.48-10.97-13.45-13.25-20.12-6.58-40-13.88-60.16-20.33-6.09-1.94-8.34-4.68-8.23-11.14.41-21.58.4-43.17-.02-64.75-.14-6.95,2.35-9.97,8.78-12.05,20.86-6.76,41.6-13.85,62.14-21.49,3.89-1.45,7.82-5.43,9.69-9.23,8.97-18.29,17.46-36.8,25.47-55.53,1.75-4.1,2.25-10.14.53-14.05-8.66-19.73-18.03-39.14-27.63-58.44-2.83-5.68-2.32-9.21,2.35-13.68,15.61-14.9,30.87-30.18,45.75-45.82,5.01-5.3,8.91-4.85,14.64-2,19.29,9.6,38.66,19.06,58.33,27.86,3.72,1.67,9.34,1.27,13.33-.23,18.39-6.84,36.6-14.16,54.61-21.97,4.19-1.83,8.84-5.7,10.47-9.75,7.75-19.26,14.77-38.84,21.53-58.47,2.08-6.04,5.14-8.09,11.49-8,21.96.37,43.94.33,65.89.02,6-.08,8.59,2.2,10.47,7.69,6.61,19.3,13.93,38.36,20.61,57.64,2.17,6.24,5.54,9.32,12.16,11.52,18.23,6.09,35.87,13.97,53.99,20.45,4.29,1.53,10.24,1.88,14.24.12,19.36-8.57,38.49-17.63,57.38-27.18,5.95-2.98,9.75-3.01,14.61,2.13,15.09,15.95,30.93,31.18,45.95,47.2,2.21,2.35,3.07,8.26,1.73,11.27-9.07,20.36-19.17,40.27-28.23,60.64-1.65,3.67-1.13,9.23.33,13.2,6.48,17.71,14.08,35.01,20.39,52.77,2.33,6.56,5.01,10.67,12.04,13.01,18.64,6.19,36.85,13.68,55.46,19.98,6.99,2.36,9.14,5.96,8.99,13.15-.46,20.81-.62,41.67.06,62.48.26,8.1-2.96,11.18-9.95,13.58-18.95,6.49-37.73,13.45-56.32,20.89-3.82,1.54-7.64,5.79-9.23,9.69-7.63,18.88-14.77,37.95-21.44,57.19-1.27,3.67-.89,8.86.72,12.44,8.85,19.64,18.57,38.89,27.36,58.56,1.42,3.18,1.28,9.28-.8,11.5-6.67,7.06-13.41,14.04-20.22,20.96-9.64,9.82-19.41,19.51-28.82,29.55-1.04,1.15-2.44,1.92-3.97,2.17h0ZM652.08,508.73c.21-74.34-59.6-135.17-133.15-135.41-75.55-.25-136.2,58.87-136.47,133.03-.28,75.92,59.22,136.48,134.2,136.59,74.94.12,135.21-59.62,135.42-134.21Z" style="fill: #464646;"/>
  </g>
</svg>